<svg width="24" height="24" viewBox="0 0 24 24" fill="none" xmlns="http://www.w3.org/2000/svg">
<path d="M12.3999 4C12.3999 4.44184 12.0418 4.8 11.5999 4.8C11.1581 4.8 10.7999 4.44184 10.7999 4C10.7999 3.55816 11.1581 3.2 11.5999 3.2C12.0418 3.2 12.3999 3.55816 12.3999 4Z" fill="white"/>
<path d="M13.2001 20.4C13.6419 20.4 14.0001 20.0419 14.0001 19.6C14.0001 19.1582 13.6419 18.8 13.2001 18.8H10.0001C9.55823 18.8 9.20007 19.1582 9.20007 19.6C9.20007 20.0419 9.55823 20.4 10.0001 20.4H13.2001Z" fill="white"/>
<path fill-rule="evenodd" clip-rule="evenodd" d="M4 3.2C4 1.43269 5.43268 0 7.2 0H16C17.7673 0 19.2 1.43269 19.2 3.2V20.8C19.2 22.5673 17.7673 24 16 24H7.2C5.43268 24 4 22.5673 4 20.8V3.2ZM7.2 1.6C6.31636 1.6 5.6 2.31634 5.6 3.2V20.8C5.6 21.6836 6.31636 22.4 7.2 22.4H16C16.8836 22.4 17.6 21.6836 17.6 20.8V3.2C17.6 2.31634 16.8836 1.6 16 1.6H7.2Z" fill="white"/>
</svg>
